# xmcd CD database file
#
# Track frame offsets:
#	150
#	20097
#	47695
#	69977
#	92397
#	107922
#	134605
#	163110
#	177215
#	200840
#	228645
#	238660
#	254552
#	286637
#	306960
#
# Disc length: 4411 seconds
#
# Revision: 0
# Processed by: cddbd v1.5.2PL0 Copyright (c) Steve Scherf et al.
# Submitted via: CDex 1.51
#
DISCID=d811390f
DTITLE=Varios - Nueva musica española vol.1
DYEAR=1993
DGENRE=New Age
TTITLE0=Adolfo Rivero - Knock Twice
TTITLE1=Luis Delgado - Casa de escaleras
TTITLE2=Mychel Huygen - Too many friends left
TTITLE3=Luis Paniagua - El sol, Danzad, danzad, lo peor ya paso
TTITLE4=Javier Paxariño - Tianan Men
TTITLE5=Suso Saiz - Horizonte paseo
TTITLE6=David Garrido - El sonido del tiempo
TTITLE7=De Villavicencio - Chacho
TTITLE8=Pep Llopis - Dos pasos a dos
TTITLE9=Finis Africae - El que habla
TTITLE10=Jesus Auñon - Para muy interesados
TTITLE11=David salvans - Tufts and music
TTITLE12=Esteban millares - Ana
TTITLE13=Cesar fornes - La mirada de la luna
TTITLE14=Gualberto - Mi guitarra y yo
EXTD=YEAR: 1993
EXTT0=
EXTT1=
EXTT2=
EXTT3=
EXTT4=
EXTT5=
EXTT6=
EXTT7=
EXTT8=
EXTT9=
EXTT10=
EXTT11=
EXTT12=
EXTT13=
EXTT14=
PLAYORDER=
